<?xml version="1.0" encoding="utf-8"?>
<!-- Generator: Adobe Illustrator 14.0.0, SVG Export Plug-In  -->
<!DOCTYPE svg PUBLIC "-//W3C//DTD SVG 1.1//EN" "http://www.w3.org/Graphics/SVG/1.1/DTD/svg11.dtd" [
	<!ENTITY ns_flows "http://ns.adobe.com/Flows/1.0/">
]>
<svg version="1.1"
	 xmlns="http://www.w3.org/2000/svg" xmlns:xlink="http://www.w3.org/1999/xlink" xmlns:a="http://ns.adobe.com/AdobeSVGViewerExtensions/3.0/"
	 x="0px" y="0px" width="400px" height="400px" viewBox="-42.36 1.297 400 400" enable-background="new -42.36 1.297 400 400"
	 xml:space="preserve">
<defs>
</defs>
<polygon display="none" fill="#A3C93A" stroke="#34A80E" points="275.957,366.768 193.604,366.768 194.055,260.433 66.771,266.768 
	92.699,366.768 19.848,366.768 19.848,110.659 55.031,79.894 13.513,54.551 71.431,25.139 74.642,62.745 145.64,0.659 
	275.957,110.659 "/>
<rect x="68.716" y="123.781" display="none" fill="#FFFFFF" stroke="#59B51D" width="76.019" height="91.855"/>
<rect x="185.49" y="145.5" display="none" fill="#FFFFFF" stroke="#22B71D" width="42.502" height="70.135"/>
<polygon display="none" fill="#FFFFFF" stroke="#333333" points="246.64,141.297 48.64,174.297 118.64,132.297 87.817,93.158 
	0.64,186.306 64.879,279.454 101.64,246.297 49.64,201.297 258.64,248.297 "/>
<polygon fill="#FFFFFF" points="27.64,173.297 304.64,173.297 163.87,275.449 "/>
</svg>
